<?xml version="1.0" standalone="no"?>
<!DOCTYPE svg PUBLIC "-//W3C//DTD SVG 20010904//EN"
 "http://www.w3.org/TR/2001/REC-SVG-20010904/DTD/svg10.dtd">
<svg version="1.0" xmlns="http://www.w3.org/2000/svg"
 width="1280.000000pt" height="1280.000000pt" viewBox="0 0 1280.000000 1280.000000"
 preserveAspectRatio="xMidYMid meet">
<metadata>
Created by potrace 1.15, written by Peter Selinger 2001-2017
</metadata>
<g transform="translate(0.000000,1280.000000) scale(0.100000,-0.100000)"
fill="#000000" stroke="none">
<path d="M6250 12648 c-85 -82 -191 -178 -235 -213 -371 -291 -758 -355 -1320
-219 -157 39 -131 31 -615 187 -477 154 -578 183 -800 226 -339 65 -702 60
-1040 -15 -650 -144 -1227 -522 -1612 -1059 -199 -276 -346 -596 -427 -926
-43 -174 -59 -287 -73 -494 -9 -153 -9 -205 5 -350 29 -300 82 -513 266 -1077
146 -445 194 -619 226 -813 69 -417 2 -740 -216 -1050 -36 -50 -140 -168 -238
-267 l-174 -178 174 -178 c196 -200 278 -308 355 -467 95 -199 124 -328 124
-553 0 -278 -48 -493 -251 -1110 -184 -564 -237 -777 -266 -1077 -33 -349 17
-733 143 -1095 201 -580 610 -1081 1149 -1410 169 -104 414 -213 603 -269 305
-90 652 -132 922 -111 338 26 520 69 1130 266 467 152 456 148 596 183 399
100 705 98 977 -4 191 -72 352 -185 592 -418 l160 -155 170 167 c94 92 201
190 239 218 374 276 754 332 1310 192 154 -39 305 -85 636 -194 612 -202 879
-257 1235 -258 706 -1 1360 266 1869 763 235 230 398 453 536 734 141 290 215
531 261 861 17 118 17 525 1 630 -49 309 -95 479 -286 1060 -186 566 -233 796
-223 1080 13 373 140 627 490 982 l161 163 -161 162 c-276 281 -388 459 -460
734 -26 102 -28 122 -28 304 1 314 36 466 280 1205 127 383 183 602 227 880
16 105 16 502 0 623 -44 324 -120 576 -262 868 -138 281 -301 504 -536 734
-510 498 -1155 761 -1864 763 -357 0 -616 -53 -1225 -253 -356 -117 -500 -161
-651 -199 -399 -101 -710 -98 -983 8 -195 75 -339 178 -571 407 l-165 162
-155 -150z"/>
</g>
</svg>
