<?xml version="1.0" encoding="utf-8"?>
<!-- Generator: Adobe Illustrator 16.0.0, SVG Export Plug-In . SVG Version: 6.00 Build 0)  -->
<!DOCTYPE svg PUBLIC "-//W3C//DTD SVG 1.1//EN" "http://www.w3.org/Graphics/SVG/1.1/DTD/svg11.dtd">
<svg version="1.1" id="Layer_1" xmlns="http://www.w3.org/2000/svg" xmlns:xlink="http://www.w3.org/1999/xlink" x="0px" y="0px"
	 width="1920px" height="1260px" viewBox="0 0 1920 1260" enable-background="new 0 0 1920 1260" xml:space="preserve">
<path d="M0,804.64c0,0,50.055-9,88.055-9s308,6,318,4.5s55-11.5,84,0s93,4.5,93,4.5l110-3.926c0,0,67-16.926,85,0
	s59,15.146,81,6.036s95-12.638,116-3.374s77.25,1.264,77.25,1.264s-7.5-25.25-11.75-52.5s-9.5-129.25-2.5-131.75
	s0-4.583,50.833-8.583s158.999-6,169.833-5.5s125.584-2.235,134.084-0.076s31.75-0.842,31.75-0.842s34.25,0.501,41.75,1.501
	s28.25,0,32.5,0.75s36.5,2.5,44.25,3.25s49.75,4,49.75,4s14.75,4,18.25,7s4,9.5,4.75,19s-2.916,26.583-0.916,27.75
	s-9.833,23.168,15.167,7.334s78.167-21.666,102,3.5s33.333,43.667,31,69.667s-16.166,47.5-18,48.833s22.167-4.833,87-1.833
	s76.556,1,87.944,2.5V769.14V1.64L0,0V804.64z"/>
<path d="M1601.055,796.307c0,0,87.667,13.334,102,1.334s38.999-36.667,30.333-62.667s-27.999-48.667-63.666-41.667
	s-41.334,45.496-44.334,51.496s-6.833,15-14.333,16.167s-4.501,7.333-5.167,9.833S1602.388,794.144,1601.055,796.307z"/>
</svg>
